<svg id="visual" viewBox="0 0 1920 1080" width="1920" height="1080" xmlns="http://www.w3.org/2000/svg" xmlns:xlink="http://www.w3.org/1999/xlink" version="1.1"><rect x="0" y="0" width="1920" height="1080" fill="#cccccc"></rect><path d="M0 1L160 49.2C320 97.3 640 193.7 960 281.3C1280 369 1600 448 1760 487.5L1920 527L1920 1081L1760 1081C1600 1081 1280 1081 960 1081C640 1081 320 1081 160 1081L0 1081Z" fill="#eeeeee"></path><path d="M0 804L160 837.5C320 871 640 938 960 856.2C1280 774.3 1600 543.7 1760 428.3L1920 313L1920 1081L1760 1081C1600 1081 1280 1081 960 1081C640 1081 320 1081 160 1081L0 1081Z" fill="#e8e8e8"></path><path d="M0 544L160 621C320 698 640 852 960 931.2C1280 1010.3 1600 1014.7 1760 1016.8L1920 1019L1920 1081L1760 1081C1600 1081 1280 1081 960 1081C640 1081 320 1081 160 1081L0 1081Z" fill="#e2e2e2"></path><path d="M0 891L160 876C320 861 640 831 960 849.8C1280 868.7 1600 936.3 1760 970.2L1920 1004L1920 1081L1760 1081C1600 1081 1280 1081 960 1081C640 1081 320 1081 160 1081L0 1081Z" fill="#dddddd"></path></svg>